<svg width="74" height="64" viewBox="0 0 74 64" fill="none" xmlns="http://www.w3.org/2000/svg">
<path d="M41.0108 61.4827C102.56 21.709 63.1644 -9.1858 41.3068 2.50054L32.376 12.8002L39.3134 29.8668L30.0635 42.6668L37.001 64C38.3501 63.1779 39.6868 62.3388 41.0108 61.4827ZM39.6094 57.1734L35.1186 43.3622L43.166 32.2348C43.5719 31.6715 43.8268 31.0271 43.9096 30.355C43.9924 29.6829 43.9009 29.0023 43.6424 28.3692L37.63 13.5725L44.3362 5.83706C52.9432 1.79228 64.8987 5.8456 68.3721 14.8397C71.5679 23.117 68.1177 38.3958 39.6094 57.1734ZM33.8282 62.0245C31.4371 60.4944 29.0899 58.9066 26.789 57.263C-23.4796 21.2055 8.52045 -6.28022 29.8508 1.25042C31.303 1.76241 32.709 2.44081 34.0317 3.28561L25.4386 12.8002L32.376 29.8668L25.4386 42.6668L33.8282 62.0245ZM23.1908 48.9686L21.1466 44.2497C20.9044 43.6906 20.7932 43.0906 20.8203 42.4891C20.8474 41.8876 21.0122 41.2982 21.3038 40.7596L27.3394 29.6236L21.1096 14.2936C20.823 13.5882 20.7439 12.8255 20.8804 12.0828C21.0169 11.3402 21.364 10.6441 21.8866 10.0653L26.6595 4.77467C18.8526 2.85894 9.5472 6.47279 6.05073 13.8541C2.76238 20.7959 4.14062 33.2673 23.1908 48.9643V48.9686Z" fill="black" fill-opacity="0.486275"/>
</svg>
