<svg width="736" height="723" viewBox="0 0 736 723" fill="none" xmlns="http://www.w3.org/2000/svg">
<rect x="108.26" y="347.834" width="499" height="299" transform="rotate(-13.4834 108.26 347.834)" fill="white" stroke="#FFC0CB"/>
<path d="M591.321 232.01L110.446 347.31L298.696 72.0042L591.321 232.01Z" fill="#E57B8D" fill-opacity="0.67" stroke="#FFC0CB"/>
<path d="M110.68 348.283L591.554 232.983L403.304 508.289L110.68 348.283Z" fill="#FFC0CB" fill-opacity="0.5" stroke="#FFC0CB"/>
<rect x="179.418" y="262.902" width="320" height="285" transform="rotate(-13.4834 179.418 262.902)" fill="white" stroke="#FFC0CB"/>
<path d="M660.869 522.775L179.767 638.003L370.164 370.984L660.869 522.775Z" fill="white" stroke="#FFC0CB"/>
<path d="M179.23 638.463L109.67 348.354L313.152 452.959L179.23 638.463Z" fill="white" stroke="#FFC0CB"/>
<path d="M592.706 233.507L662.059 522.752L461.592 417.881L592.706 233.507Z" fill="white" stroke="#FFC0CB"/>
<path d="M249.915 310.462L243.186 312.075L242.915 310.947L257.58 307.431L257.85 308.559L251.199 310.154L257.923 338.199L256.639 338.507L249.915 310.462ZM273.274 335.176C271.511 335.599 269.814 335.554 268.182 335.04C266.544 334.5 265.153 333.613 264.007 332.38C262.855 331.121 262.077 329.648 261.673 327.962C261.275 326.303 261.307 324.664 261.768 323.045C262.256 321.419 263.101 320.024 264.302 318.858C265.523 317.661 267.003 316.854 268.74 316.437C270.451 316.027 272.11 316.081 273.715 316.601C275.341 317.089 276.726 317.95 277.872 319.183C279.018 320.417 279.79 321.863 280.188 323.523C280.604 325.26 280.598 326.949 280.168 328.587C279.732 330.2 278.916 331.602 277.721 332.794C276.546 333.953 275.064 334.747 273.274 335.176ZM273.013 334.087C274.491 333.733 275.75 333.033 276.788 331.989C277.826 330.945 278.534 329.72 278.909 328.313C279.305 326.875 279.322 325.403 278.962 323.899C278.607 322.421 277.928 321.131 276.923 320.028C275.918 318.925 274.716 318.144 273.317 317.684C271.918 317.224 270.479 317.172 269.001 317.526C267.523 317.88 266.255 318.596 265.197 319.672C264.158 320.717 263.428 321.961 263.007 323.406C262.611 324.844 262.591 326.303 262.945 327.781C263.3 329.259 263.979 330.549 264.984 331.652C266.009 332.723 267.22 333.488 268.62 333.948C270.045 334.401 271.509 334.448 273.013 334.087ZM318.273 292.878L325.268 322.051L323.985 322.359L317.438 295.053L310.346 326.205L289.892 301.288L296.523 328.944L295.239 329.251L288.245 300.078L290.073 299.64L309.711 323.56L316.484 293.307L318.273 292.878ZM339.873 326.735C336.969 327.431 334.425 326.944 332.242 325.274L331.767 323.29C332.946 324.434 334.158 325.199 335.402 325.586C336.653 325.999 338.004 326.031 339.457 325.683C340.935 325.329 342.118 324.716 343.006 323.845C343.92 322.968 344.518 321.919 344.802 320.7C345.092 319.506 345.078 318.248 344.761 316.925L344.052 313.969C343.722 315.337 343.002 316.51 341.893 317.489C340.804 318.436 339.52 319.087 338.042 319.441C336.564 319.795 335.177 319.785 333.88 319.411C332.584 319.036 331.472 318.343 330.544 317.331C329.641 316.314 329.007 315.04 328.64 313.51L326.196 303.319L327.441 303.02L329.885 313.211C330.22 314.612 330.795 315.749 331.608 316.624C332.441 317.466 333.399 318.031 334.483 318.32C335.566 318.609 336.679 318.616 337.82 318.343C339.065 318.044 340.147 317.469 341.067 316.618C341.981 315.741 342.615 314.725 342.969 313.57C343.343 312.384 343.39 311.207 343.11 310.04L340.666 299.849L341.911 299.551L345.977 316.51C346.35 318.066 346.362 319.544 346.012 320.944C345.695 322.364 345.013 323.583 343.969 324.601C342.924 325.62 341.559 326.331 339.873 326.735ZM352.785 284.603L354.069 284.295L360.793 312.341L369.818 310.177L370.088 311.305L359.78 313.776L352.785 284.603ZM382.455 316.525C379.551 317.221 377.007 316.734 374.824 315.064L374.349 313.08C375.528 314.224 376.74 314.989 377.984 315.376C379.235 315.789 380.587 315.821 382.039 315.473C383.517 315.119 384.7 314.506 385.588 313.635C386.502 312.758 387.101 311.709 387.384 310.49C387.674 309.296 387.66 308.038 387.343 306.715L386.634 303.759C386.304 305.127 385.584 306.3 384.475 307.279C383.386 308.226 382.102 308.877 380.624 309.231C379.146 309.585 377.759 309.575 376.462 309.201C375.166 308.826 374.054 308.133 373.126 307.121C372.223 306.104 371.589 304.83 371.222 303.3L368.779 293.109L370.023 292.81L372.467 303.001C372.803 304.402 373.377 305.539 374.19 306.414C375.023 307.256 375.981 307.821 377.065 308.11C378.149 308.399 379.261 308.406 380.402 308.133C381.647 307.834 382.729 307.259 383.649 306.408C384.563 305.531 385.197 304.515 385.551 303.36C385.925 302.174 385.972 300.997 385.692 299.83L383.248 289.639L384.493 289.341L388.56 306.3C388.933 307.856 388.944 309.334 388.594 310.734C388.277 312.154 387.595 313.373 386.551 314.391C385.506 315.41 384.141 316.121 382.455 316.525ZM401.542 304.216C399.856 304.62 398.201 304.578 396.576 304.09C394.977 303.596 393.594 302.748 392.429 301.547C391.263 300.346 390.481 298.915 390.083 297.255C389.685 295.596 389.733 293.966 390.228 292.367C390.722 290.768 391.569 289.385 392.771 288.22C393.998 287.048 395.454 286.26 397.14 285.856C398.774 285.464 400.435 285.532 402.125 286.059C403.808 286.561 405.168 287.427 406.203 288.66L402.38 272.712L403.624 272.413L410.619 301.587L409.374 301.885L408.358 297.645C407.916 299.232 407.058 300.631 405.785 301.841C404.538 303.045 403.124 303.836 401.542 304.216ZM401.242 303.136C402.668 302.794 403.904 302.114 404.948 301.095C406.013 300.045 406.762 298.823 407.196 297.43C407.649 296.005 407.705 294.58 407.363 293.153C407.021 291.727 406.325 290.482 405.274 289.417C404.25 288.347 403.025 287.585 401.6 287.131C400.201 286.671 398.788 286.612 397.362 286.954C395.936 287.296 394.704 287.989 393.665 289.034C392.62 290.052 391.884 291.271 391.457 292.689C391.029 294.108 390.986 295.531 391.328 296.957C391.676 298.409 392.35 299.674 393.348 300.751C394.367 301.795 395.575 302.547 396.974 303.007C398.393 303.435 399.816 303.478 401.242 303.136ZM411.888 278.535C411.525 278.622 411.17 278.57 410.823 278.38C410.501 278.182 410.294 277.889 410.2 277.5C410.113 277.137 410.168 276.795 410.366 276.474C410.589 276.146 410.882 275.938 411.245 275.851C411.608 275.764 411.95 275.819 412.271 276.017C412.619 276.207 412.836 276.484 412.923 276.848C413.016 277.236 412.952 277.595 412.728 277.923C412.531 278.244 412.251 278.448 411.888 278.535ZM412.226 282.691L413.471 282.393L417.668 299.896L416.423 300.195L412.226 282.691Z" fill="#EE0F36"/>
<g clip-path="url(#clip0_23_26)">
<path d="M378.996 426.535L372.616 423.022C349.97 410.612 335.013 402.395 331.748 388.777C329.073 377.615 335.728 366.815 346.853 364.148C353.138 362.641 359.872 364.121 364.909 367.765C367.746 362.233 373.077 357.861 379.362 356.355C390.488 353.688 401.316 360.298 403.992 371.459C407.256 385.077 397.65 399.183 383.091 420.511L378.996 426.535Z" fill="#FFC0CB"/>
<path d="M349.401 386.383C350.288 386.17 351.128 386.121 351.92 386.235C352.721 386.348 353.441 386.607 354.081 387.013C354.729 387.417 355.285 387.967 355.748 388.662C356.21 389.357 356.555 390.176 356.78 391.117C357.008 392.066 357.073 392.956 356.976 393.785C356.878 394.615 356.633 395.36 356.241 396.022C355.856 396.682 355.332 397.243 354.67 397.706C354.016 398.168 353.245 398.505 352.358 398.717C351.463 398.932 350.616 398.983 349.816 398.87C349.015 398.758 348.29 398.495 347.64 398.084C346.998 397.67 346.442 397.116 345.971 396.423C345.508 395.728 345.163 394.905 344.936 393.956C344.71 393.015 344.646 392.13 344.743 391.3C344.848 390.469 345.094 389.727 345.481 389.075C345.875 388.421 346.404 387.862 347.066 387.399C347.728 386.936 348.507 386.597 349.401 386.383ZM351.827 396.5C352.822 396.261 353.477 395.751 353.792 394.968C354.114 394.183 354.12 393.145 353.81 391.854C353.501 390.562 353.024 389.636 352.379 389.075C351.742 388.512 350.926 388.35 349.93 388.588C348.919 388.831 348.25 389.353 347.924 390.155C347.604 390.947 347.598 391.986 347.905 393.269C348.213 394.553 348.689 395.475 349.334 396.036C349.984 396.588 350.815 396.743 351.827 396.5ZM362.558 392.805C362.98 393.123 363.401 393.318 363.821 393.39C364.25 393.461 364.689 393.441 365.14 393.333C365.576 393.229 365.949 393.053 366.26 392.806C366.571 392.558 366.807 392.239 366.968 391.846C367.137 391.452 367.227 390.986 367.238 390.449C367.247 389.904 367.169 389.285 367.003 388.593C366.835 387.892 366.635 387.315 366.402 386.861C366.176 386.397 365.921 386.038 365.639 385.785C365.356 385.532 365.046 385.372 364.709 385.305C364.38 385.236 364.025 385.247 363.643 385.338C363.044 385.482 362.566 385.732 362.207 386.09C361.847 386.439 361.535 386.888 361.271 387.437L362.558 392.805ZM360.672 385.606C361.03 384.936 361.479 384.356 362.019 383.864C362.559 383.373 363.25 383.026 364.09 382.825C364.743 382.668 365.371 382.662 365.973 382.805C366.583 382.947 367.145 383.232 367.659 383.66C368.179 384.078 368.635 384.643 369.028 385.355C369.427 386.058 369.743 386.899 369.978 387.879C370.193 388.774 370.271 389.631 370.212 390.452C370.154 391.272 369.966 392.016 369.649 392.684C369.34 393.351 368.905 393.92 368.343 394.392C367.788 394.854 367.117 395.179 366.331 395.368C365.662 395.528 365.066 395.564 364.543 395.476C364.018 395.379 363.525 395.193 363.064 394.917L364.239 399.818L361.357 400.509L357.55 384.627L359.312 384.205C359.685 384.115 359.972 384.231 360.173 384.553L360.672 385.606ZM379.633 384.208C379.544 383.834 379.405 383.497 379.218 383.197C379.037 382.886 378.811 382.632 378.541 382.433C378.272 382.235 377.957 382.104 377.596 382.043C377.242 381.971 376.851 381.987 376.423 382.09C375.59 382.289 374.99 382.684 374.621 383.274C374.261 383.862 374.118 384.608 374.195 385.511L379.633 384.208ZM374.554 387.264C374.748 387.867 374.984 388.374 375.264 388.784C375.541 389.187 375.855 389.502 376.206 389.731C376.555 389.951 376.938 390.09 377.355 390.146C377.777 390.193 378.222 390.161 378.689 390.049C379.155 389.937 379.543 389.786 379.851 389.597C380.168 389.406 380.434 389.215 380.652 389.023C380.877 388.829 381.069 388.655 381.23 388.502C381.398 388.346 381.572 388.247 381.751 388.204C381.992 388.146 382.193 388.193 382.352 388.344L383.432 389.195C383.203 389.645 382.921 390.046 382.585 390.398C382.248 390.742 381.881 391.044 381.482 391.304C381.09 391.554 380.675 391.765 380.239 391.935C379.811 392.104 379.386 392.238 378.966 392.339C378.134 392.539 377.327 392.588 376.546 392.487C375.763 392.379 375.043 392.12 374.385 391.71C373.726 391.292 373.149 390.723 372.655 390.002C372.16 389.273 371.786 388.384 371.535 387.334C371.339 386.517 371.287 385.719 371.38 384.94C371.471 384.153 371.699 383.436 372.062 382.789C372.431 382.133 372.932 381.565 373.566 381.084C374.207 380.601 374.975 380.253 375.869 380.038C376.624 379.857 377.349 379.811 378.045 379.899C378.741 379.987 379.374 380.21 379.945 380.567C380.514 380.916 381.008 381.398 381.427 382.013C381.852 382.619 382.168 383.353 382.375 384.217C382.479 384.652 382.503 384.959 382.447 385.137C382.389 385.307 382.228 385.424 381.964 385.488L374.554 387.264ZM386.33 379.283C386.513 378.984 386.713 378.702 386.929 378.436C387.151 378.161 387.393 377.917 387.655 377.707C387.923 377.486 388.219 377.296 388.542 377.136C388.864 376.968 389.227 376.836 389.632 376.739C390.285 376.582 390.892 376.556 391.452 376.661C392.01 376.757 392.504 376.968 392.936 377.292C393.373 377.607 393.745 378.024 394.05 378.543C394.361 379.052 394.597 379.642 394.758 380.311L396.584 387.931L393.702 388.622L391.875 381.002C391.7 380.27 391.398 379.746 390.968 379.43C390.536 379.105 389.978 379.025 389.294 379.189C388.796 379.309 388.356 379.533 387.975 379.863C387.593 380.194 387.254 380.6 386.959 381.082L389.034 389.741L386.152 390.432L383.282 378.459L385.044 378.036C385.417 377.947 385.704 378.063 385.905 378.385L386.33 379.283Z" fill="white"/>
</g>
<line x1="239.886" y1="355.442" x2="482.886" y2="298.442" stroke="#FFC0CB"/>
<line x1="248.886" y1="380.442" x2="491.886" y2="323.442" stroke="#FFC0CB"/>
<defs>
<clipPath id="clip0_23_26">
<rect width="89.1479" height="89.1479" fill="white" transform="translate(317.164 359.805) rotate(-13.48)"/>
</clipPath>
</defs>
</svg>
